millimetreA Black 01.ufo
<glyph name="question" format="1">
  <advance width="450"/>
  <unicode hex="003F"/>
  <outline>
    <contour>
      <point x="160" y="280" type="curve" smooth="yes"/>
      <point x="170" y="200" type="line"/>
      <point x="280" y="200" type="line"/>
      <point x="295" y="280" type="line" smooth="yes"/>
      <point x="315" y="390"/>
      <point x="405" y="435"/>
      <point x="405" y="550" type="curve"/>
      <point x="405" y="650"/>
      <point x="355" y="710"/>
      <point x="225" y="710" type="curve" smooth="yes"/>
      <point x="115" y="710"/>
      <point x="50" y="660"/>
      <point x="50" y="560" type="curve"/>
      <point x="50" y="500" type="line"/>
      <point x="200" y="500" type="line"/>
      <point x="200" y="520" type="line"/>
      <point x="200" y="550"/>
      <point x="205" y="560"/>
      <point x="225" y="560" type="curve" smooth="yes"/>
      <point x="245" y="560"/>
      <point x="255" y="550"/>
      <point x="255" y="530" type="curve"/>
      <point x="255" y="460"/>
      <point x="150" y="410"/>
    </contour>
    <contour>
      <point x="150" y="0" type="line"/>
      <point x="300" y="0" type="line"/>
      <point x="300" y="150" type="line"/>
      <point x="150" y="150" type="line"/>
    </contour>
  </outline>
</glyph>
<glyph name="D" format="1">
  <advance width="600"/>
  <unicode hex="0044"/>
  <outline>
    <contour>
      <point x="200" y="0" type="line"/>
      <point x="200" y="700" type="line"/>
      <point x="50" y="700" type="line"/>
      <point x="50" y="0" type="line"/>
    </contour>
    <contour>
      <point x="330.0" y="0.0" type="line" smooth="yes"/>
      <point x="470.0" y="0.0"/>
      <point x="550.0" y="70.0"/>
      <point x="550.0" y="245.0" type="curve"/>
      <point x="550.0" y="350.0" type="line"/>
      <point x="400.0" y="350.0" type="line"/>
      <point x="400.0" y="240.0" type="line" smooth="yes"/>
      <point x="400.0" y="170.0"/>
      <point x="380.0" y="150.0"/>
      <point x="300.0" y="150.0" type="curve"/>
      <point x="125" y="150" type="line"/>
      <point x="145" y="0" type="line"/>
    </contour>
    <contour>
      <point x="330.0" y="700.0" type="curve"/>
      <point x="135" y="700" type="line"/>
      <point x="135" y="550" type="line"/>
      <point x="300.0" y="550.0" type="line"/>
      <point x="380.0" y="550.0"/>
      <point x="400.0" y="530.0"/>
      <point x="400.0" y="460.0" type="curve" smooth="yes"/>
      <point x="400.0" y="350.0" type="line"/>
      <point x="550.0" y="350.0" type="line"/>
      <point x="550.0" y="455.0" type="line"/>
      <point x="550.0" y="630.0"/>
      <point x="470" y="700"/>
    </contour>
  </outline>
</glyph>
<glyph name="I" format="1">
  <advance width="250"/>
  <unicode hex="0049"/>
  <outline>
    <contour>
      <point x="50" y="0" type="line"/>
      <point x="200" y="0" type="line"/>
      <point x="200" y="700" type="line"/>
      <point x="50" y="700" type="line"/>
    </contour>
    <contour>
      <point x="125" y="650" type="move" name="top"/>
    </contour>
  </outline>
</glyph>
<glyph name="K" format="1">
  <advance width="600"/>
  <unicode hex="004B"/>
  <outline>
    <contour>
      <point x="50" y="0" type="line"/>
      <point x="200" y="0" type="line"/>
      <point x="200" y="700" type="line"/>
      <point x="50" y="700" type="line"/>
    </contour>
    <contour>
      <point x="130" y="350" type="line"/>
      <point x="300" y="350" type="line"/>
      <point x="300" y="500" type="line"/>
      <point x="130" y="500" type="line"/>
    </contour>
    <contour>
      <point x="340" y="470" type="curve"/>
      <point x="300" y="350" type="line"/>
      <point x="290" y="350" type="line"/>
      <point x="370" y="350"/>
      <point x="380" y="340"/>
      <point x="390" y="250" type="curve" smooth="yes"/>
      <point x="410" y="0" type="line"/>
      <point x="560" y="0" type="line"/>
      <point x="540" y="250" type="line" smooth="yes"/>
      <point x="530" y="385"/>
      <point x="470" y="470"/>
    </contour>
    <contour>
      <point x="340" y="380" type="line"/>
      <point x="470" y="380"/>
      <point x="525" y="465"/>
      <point x="540" y="600" type="curve" smooth="yes"/>
      <point x="550" y="700" type="line"/>
      <point x="400" y="700" type="line"/>
      <point x="390" y="600" type="line" smooth="yes"/>
      <point x="380" y="510"/>
      <point x="370" y="500"/>
      <point x="290" y="500" type="curve"/>
      <point x="300" y="350" type="line"/>
    </contour>
  </outline>
</glyph>
<glyph name="T" format="1">
  <advance width="400"/>
  <unicode hex="0054"/>
  <outline>
    <contour>
      <point x="125" y="0" type="line"/>
      <point x="275" y="0" type="line"/>
      <point x="275" y="700" type="line"/>
      <point x="125" y="700" type="line"/>
    </contour>
    <contour>
      <point x="0" y="550" type="line"/>
      <point x="400" y="550" type="line"/>
      <point x="400" y="700" type="line"/>
      <point x="0" y="700" type="line"/>
    </contour>
  </outline>
</glyph>
<glyph name="U" format="1">
  <advance width="600"/>
  <unicode hex="0055"/>
  <outline>
    <contour>
      <point x="270" y="0" type="curve" smooth="yes"/>
      <point x="300" y="0" type="line"/>
      <point x="300" y="150" type="line"/>
      <point x="220" y="150"/>
      <point x="200" y="170"/>
      <point x="200" y="240" type="curve" smooth="yes"/>
      <point x="200" y="700" type="line"/>
      <point x="50" y="700" type="line"/>
      <point x="50" y="245" type="line"/>
      <point x="50" y="70"/>
      <point x="130" y="0"/>
    </contour>
    <contour>
      <point x="330" y="0" type="line" smooth="yes"/>
      <point x="470" y="0"/>
      <point x="550" y="70"/>
      <point x="550" y="245" type="curve"/>
      <point x="550" y="700" type="line"/>
      <point x="400" y="700" type="line"/>
      <point x="400" y="240" type="line" smooth="yes"/>
      <point x="400" y="170"/>
      <point x="380" y="150"/>
      <point x="300" y="150" type="curve"/>
      <point x="300" y="0" type="line"/>
    </contour>
    <contour>
      <point x="300" y="650" type="move" name="top"/>
    </contour>
  </outline>
</glyph>
<glyph name="V" format="1">
  <advance width="600"/>
  <unicode hex="0056"/>
  <outline>
    <contour>
      <point x="250" y="0" type="curve"/>
      <point x="390" y="75" type="line"/>
      <point x="240" y="175"/>
      <point x="200" y="240"/>
      <point x="200" y="450" type="curve" smooth="yes"/>
      <point x="200" y="700" type="line"/>
      <point x="50" y="700" type="line"/>
      <point x="50" y="450" type="line" smooth="yes"/>
      <point x="50" y="250"/>
      <point x="90" y="115"/>
    </contour>
    <contour>
      <point x="350" y="0" type="line"/>
      <point x="510" y="115"/>
      <point x="550" y="250"/>
      <point x="550" y="450" type="curve" smooth="yes"/>
      <point x="550" y="700" type="line"/>
      <point x="400" y="700" type="line"/>
      <point x="400" y="450" type="line" smooth="yes"/>
      <point x="400" y="240"/>
      <point x="360" y="175"/>
      <point x="210" y="75" type="curve"/>
      <point x="250" y="0" type="line"/>
    </contour>
    <contour>
      <point x="300" y="50" type="move" name="top"/>
    </contour>
  </outline>
</glyph>
<glyph name="W" format="1">
  <advance width="950"/>
  <unicode hex="0057"/>
  <outline>
    <contour>
      <point x="250" y="0" type="curve"/>
      <point x="390" y="75" type="line"/>
      <point x="240" y="175"/>
      <point x="200" y="240"/>
      <point x="200" y="450" type="curve" smooth="yes"/>
      <point x="200" y="700" type="line"/>
      <point x="50" y="700" type="line"/>
      <point x="50" y="450" type="line" smooth="yes"/>
      <point x="50" y="250"/>
      <point x="90" y="115"/>
    </contour>
    <contour>
      <point x="700" y="0" type="line"/>
      <point x="860" y="115"/>
      <point x="900" y="250"/>
      <point x="900" y="450" type="curve" smooth="yes"/>
      <point x="900" y="700" type="line"/>
      <point x="750" y="700" type="line"/>
      <point x="750" y="450" type="line" smooth="yes"/>
      <point x="750" y="240"/>
      <point x="710" y="175"/>
      <point x="560" y="75" type="curve"/>
      <point x="600" y="0" type="line"/>
    </contour>
    <contour>
      <point x="600" y="0" type="curve"/>
      <point x="740" y="75" type="line"/>
      <point x="590" y="175"/>
      <point x="550" y="240"/>
      <point x="550" y="450" type="curve" smooth="yes"/>
      <point x="550" y="700" type="line"/>
      <point x="400" y="700" type="line"/>
      <point x="400" y="450" type="line" smooth="yes"/>
      <point x="400" y="240"/>
      <point x="360" y="175"/>
      <point x="210" y="75" type="curve"/>
      <point x="250" y="0" type="line"/>
      <point x="350" y="0" type="line"/>
      <point x="405" y="40"/>
      <point x="460" y="110"/>
      <point x="475" y="175" type="curve"/>
      <point x="490" y="110"/>
      <point x="545" y="40"/>
    </contour>
    <contour>
      <point x="300" y="50" type="move" name="top"/>
    </contour>
    <contour>
      <point x="650" y="50" type="move" name="top"/>
    </contour>
  </outline>
</glyph>
<glyph name="X" format="1">
  <advance width="600"/>
  <unicode hex="0058"/>
  <outline>
    <contour>
      <point x="280" y="305" type="curve"/>
      <point x="370" y="385" type="line"/>
      <point x="210" y="450"/>
      <point x="200" y="530"/>
      <point x="200" y="600" type="curve" smooth="yes"/>
      <point x="200" y="700" type="line"/>
      <point x="50" y="700" type="line"/>
      <point x="50" y="600" type="line" smooth="yes"/>
      <point x="50" y="500"/>
      <point x="110" y="355"/>
    </contour>
    <contour>
      <point x="320" y="305" type="line"/>
      <point x="490" y="355"/>
      <point x="550" y="500"/>
      <point x="550" y="600" type="curve" smooth="yes"/>
      <point x="550" y="700" type="line"/>
      <point x="400" y="700" type="line"/>
      <point x="400" y="600" type="line" smooth="yes"/>
      <point x="400" y="530"/>
      <point x="390" y="450"/>
      <point x="230" y="385" type="curve"/>
      <point x="310" y="340" type="line"/>
    </contour>
    <contour>
      <point x="280" y="405" type="line"/>
      <point x="110" y="355"/>
      <point x="50" y="200"/>
      <point x="50" y="100" type="curve" smooth="yes"/>
      <point x="50" y="0" type="line"/>
      <point x="200" y="0" type="line"/>
      <point x="200" y="100" type="line" smooth="yes"/>
      <point x="200" y="170"/>
      <point x="210" y="260"/>
      <point x="370" y="325" type="curve"/>
    </contour>
    <contour>
      <point x="320" y="405" type="curve"/>
      <point x="220" y="350" type="line"/>
      <point x="230" y="325" type="line"/>
      <point x="390" y="260"/>
      <point x="400" y="170"/>
      <point x="400" y="100" type="curve" smooth="yes"/>
      <point x="400" y="0" type="line"/>
      <point x="550" y="0" type="line"/>
      <point x="550" y="100" type="line" smooth="yes"/>
      <point x="550" y="200"/>
      <point x="490" y="355"/>
    </contour>
  </outline>
</glyph>
<glyph name="a" format="1">
  <advance width="600"/>
  <unicode hex="0061"/>
  <outline>
    <contour>
      <point x="25" y="345" type="curve"/>
      <point x="25" y="325" type="line"/>
      <point x="225" y="325" type="line"/>
      <point x="225" y="335" type="line"/>
      <point x="225" y="345"/>
      <point x="235" y="350"/>
      <point x="300" y="350" type="curve" smooth="yes"/>
      <point x="360" y="350"/>
      <point x="375" y="345"/>
      <point x="375" y="320" type="curve" smooth="yes"/>
      <point x="375" y="220" type="line"/>
      <point x="575" y="250" type="line"/>
      <point x="575" y="330" type="line"/>
      <point x="575" y="440"/>
      <point x="495" y="510"/>
      <point x="300" y="510" type="curve" smooth="yes"/>
      <point x="90" y="510"/>
      <point x="25" y="455"/>
    </contour>
    <contour>
      <point x="575" y="250" type="line"/>
      <point x="375" y="250" type="line"/>
      <point x="375" y="80" type="line"/>
      <point x="390" y="0" type="line"/>
      <point x="575" y="0" type="line"/>
    </contour>
    <contour>
      <point x="15" y="140" type="curve"/>
      <point x="15" y="30"/>
      <point x="60" y="-10"/>
      <point x="200" y="-10" type="curve"/>
      <point x="310" y="-10"/>
      <point x="365" y="25"/>
      <point x="375" y="80" type="curve"/>
      <point x="375" y="180" type="line"/>
      <point x="375" y="160"/>
      <point x="350" y="155"/>
      <point x="275" y="155" type="curve" smooth="yes"/>
      <point x="225" y="155"/>
      <point x="215" y="160"/>
      <point x="215" y="175" type="curve"/>
      <point x="215" y="195"/>
      <point x="255" y="200"/>
      <point x="375" y="210" type="curve"/>
      <point x="375" y="305" type="line"/>
      <point x="115" y="295"/>
      <point x="15" y="265"/>
    </contour>
    <contour>
      <point x="275" y="500" type="move" name="top"/>
    </contour>
  </outline>
</glyph>
<glyph name="c" format="1">
  <advance width="600"/>
  <unicode hex="0063"/>
  <outline>
    <contour>
      <point x="550" y="180" type="curve"/>
      <point x="550" y="210" type="line"/>
      <point x="400" y="210" type="line"/>
      <point x="400" y="180" type="line"/>
      <point x="400" y="150"/>
      <point x="380" y="140"/>
      <point x="300" y="140" type="curve" smooth="yes"/>
      <point x="220" y="140"/>
      <point x="200" y="160"/>
      <point x="200" y="240" type="curve" smooth="yes"/>
      <point x="200" y="250" type="line"/>
      <point x="50" y="250" type="line"/>
      <point x="50" y="190" type="line"/>
      <point x="50" y="60"/>
      <point x="120" y="-10"/>
      <point x="300" y="-10" type="curve" smooth="yes"/>
      <point x="490" y="-10"/>
      <point x="550" y="40"/>
    </contour>
    <contour>
      <point x="550" y="320" type="line"/>
      <point x="550" y="460"/>
      <point x="490" y="510"/>
      <point x="300" y="510" type="curve" smooth="yes"/>
      <point x="120" y="510"/>
      <point x="50" y="440"/>
      <point x="50" y="310" type="curve"/>
      <point x="50" y="250" type="line"/>
      <point x="200" y="250" type="line"/>
      <point x="200" y="260" type="line" smooth="yes"/>
      <point x="200" y="340"/>
      <point x="220" y="360"/>
      <point x="300" y="360" type="curve" smooth="yes"/>
      <point x="380" y="360"/>
      <point x="400" y="350"/>
      <point x="400" y="320" type="curve"/>
      <point x="400" y="290" type="line"/>
      <point x="550" y="290" type="line"/>
    </contour>
  </outline>
</glyph>
<glyph name="d" format="1">
  <advance width="600"/>
  <unicode hex="0064"/>
  <outline>
    <contour>
      <point x="575" y="0" type="line"/>
      <point x="575" y="700" type="line"/>
      <point x="375" y="700" type="line"/>
      <point x="375" y="80" type="line"/>
      <point x="400" y="0" type="line"/>
    </contour>
    <contour>
      <point x="375" y="80" type="curve"/>
      <point x="375" y="250" type="line"/>
      <point x="375" y="215"/>
      <point x="355" y="190"/>
      <point x="300" y="190" type="curve" smooth="yes"/>
      <point x="245" y="190"/>
      <point x="225" y="215"/>
      <point x="225" y="250" type="curve"/>
      <point x="25" y="250" type="line"/>
      <point x="25" y="210" type="line"/>
      <point x="25" y="60"/>
      <point x="90" y="-10"/>
      <point x="205" y="-10" type="curve"/>
      <point x="300" y="-10"/>
      <point x="345" y="15"/>
    </contour>
    <contour>
      <point x="345" y="485"/>
      <point x="300" y="510"/>
      <point x="205" y="510" type="curve"/>
      <point x="90" y="510"/>
      <point x="25" y="440"/>
      <point x="25" y="290" type="curve"/>
      <point x="25" y="250" type="line"/>
      <point x="225" y="250" type="line"/>
      <point x="225" y="285"/>
      <point x="245" y="310"/>
      <point x="300" y="310" type="curve" smooth="yes"/>
      <point x="355" y="310"/>
      <point x="375" y="285"/>
      <point x="375" y="250" type="curve"/>
      <point x="375" y="420" type="line"/>
    </contour>
  </outline>
</glyph>
<glyph name="h" format="1">
  <advance width="600"/>
  <unicode hex="0068"/>
  <outline>
    <contour>
      <point x="25" y="0" type="line"/>
      <point x="225" y="0" type="line"/>
      <point x="225" y="700" type="line"/>
      <point x="25" y="700" type="line"/>
    </contour>
    <contour>
      <point x="225" y="425" type="curve"/>
      <point x="225" y="245" type="line"/>
      <point x="225" y="285"/>
      <point x="245" y="310"/>
      <point x="300" y="310" type="curve" smooth="yes"/>
      <point x="355" y="310"/>
      <point x="375" y="285"/>
      <point x="375" y="245" type="curve"/>
      <point x="375" y="0" type="line"/>
      <point x="575" y="0" type="line"/>
      <point x="575" y="255" type="line"/>
      <point x="575" y="425"/>
      <point x="525" y="510"/>
      <point x="375" y="510" type="curve"/>
      <point x="295" y="510"/>
      <point x="240" y="480"/>
    </contour>
    <contour>
      <point x="275.0" y="500.0" type="move" name="top"/>
    </contour>
  </outline>
</glyph>
<glyph name="o" format="1">
  <advance width="600"/>
  <unicode hex="006F"/>
  <outline>
    <contour>
      <point x="300" y="-10" type="curve"/>
      <point x="500" y="-10"/>
      <point x="580" y="90"/>
      <point x="580" y="235" type="curve"/>
      <point x="580" y="250" type="line"/>
      <point x="380" y="250" type="line"/>
      <point x="380" y="215"/>
      <point x="360" y="190"/>
      <point x="300" y="190" type="curve"/>
      <point x="240" y="190"/>
      <point x="220" y="215"/>
      <point x="220" y="250" type="curve"/>
      <point x="20" y="250" type="line"/>
      <point x="20" y="235" type="line"/>
      <point x="20" y="90"/>
      <point x="100" y="-10"/>
    </contour>
    <contour>
      <point x="300" y="510" type="curve"/>
      <point x="100" y="510"/>
      <point x="20" y="410"/>
      <point x="20" y="265" type="curve"/>
      <point x="20" y="250" type="line"/>
      <point x="220" y="250" type="line"/>
      <point x="220" y="285"/>
      <point x="240" y="310"/>
      <point x="300" y="310" type="curve"/>
      <point x="360" y="310"/>
      <point x="380" y="285"/>
      <point x="380" y="250" type="curve"/>
      <point x="580" y="250" type="line"/>
      <point x="580" y="265" type="line"/>
      <point x="580" y="410"/>
      <point x="500" y="510"/>
    </contour>
    <contour>
      <point x="275" y="500" type="move" name="top"/>
    </contour>
  </outline>
</glyph>
<glyph name="p" format="1">
  <advance width="600"/>
  <unicode hex="0070"/>
  <outline>
    <contour>
      <point x="25" y="500" type="line"/>
      <point x="25" y="-200" type="line"/>
      <point x="225" y="-200" type="line"/>
      <point x="225" y="420" type="line"/>
      <point x="200" y="500" type="line"/>
    </contour>
    <contour>
      <point x="225" y="420" type="curve"/>
      <point x="225" y="250" type="line"/>
      <point x="225" y="285"/>
      <point x="245" y="310"/>
      <point x="300" y="310" type="curve" smooth="yes"/>
      <point x="355" y="310"/>
      <point x="375" y="285"/>
      <point x="375" y="250" type="curve"/>
      <point x="575" y="250" type="line"/>
      <point x="575" y="290" type="line"/>
      <point x="575" y="440"/>
      <point x="510" y="510"/>
      <point x="395" y="510" type="curve"/>
      <point x="300" y="510"/>
      <point x="255" y="485"/>
    </contour>
    <contour>
      <point x="255" y="15"/>
      <point x="300" y="-10"/>
      <point x="395" y="-10" type="curve"/>
      <point x="510" y="-10"/>
      <point x="575" y="60"/>
      <point x="575" y="210" type="curve"/>
      <point x="575" y="250" type="line"/>
      <point x="375" y="250" type="line"/>
      <point x="375" y="215"/>
      <point x="355" y="190"/>
      <point x="300" y="190" type="curve" smooth="yes"/>
      <point x="245" y="190"/>
      <point x="225" y="215"/>
      <point x="225" y="250" type="curve"/>
      <point x="225" y="80" type="line"/>
    </contour>
  </outline>
</glyph>
<glyph name="s" format="1">
  <advance width="600"/>
  <unicode hex="0073"/>
  <outline>
    <contour>
      <point x="300" y="195" type="curve" smooth="yes"/>
      <point x="375" y="190"/>
      <point x="385" y="185"/>
      <point x="385" y="165" type="curve" smooth="yes"/>
      <point x="385" y="150"/>
      <point x="370" y="150"/>
      <point x="300" y="150" type="curve" smooth="yes"/>
      <point x="235" y="150"/>
      <point x="225" y="150"/>
      <point x="225" y="165" type="curve"/>
      <point x="225" y="175" type="line"/>
      <point x="25" y="175" type="line"/>
      <point x="25" y="130" type="line"/>
      <point x="25" y="40"/>
      <point x="85" y="-10"/>
      <point x="300" y="-10" type="curve" smooth="yes"/>
      <point x="505" y="-10"/>
      <point x="585" y="50"/>
      <point x="585" y="150" type="curve"/>
      <point x="585" y="265"/>
      <point x="525" y="290"/>
      <point x="300" y="305" type="curve" smooth="yes"/>
      <point x="225" y="310"/>
      <point x="215" y="315"/>
      <point x="215" y="335" type="curve" smooth="yes"/>
      <point x="215" y="350"/>
      <point x="230" y="350"/>
      <point x="300" y="350" type="curve" smooth="yes"/>
      <point x="365" y="350"/>
      <point x="375" y="350"/>
      <point x="375" y="335" type="curve"/>
      <point x="375" y="325" type="line"/>
      <point x="575" y="325" type="line"/>
      <point x="575" y="370" type="line"/>
      <point x="575" y="460"/>
      <point x="515" y="510"/>
      <point x="300" y="510" type="curve" smooth="yes"/>
      <point x="95" y="510"/>
      <point x="15" y="450"/>
      <point x="15" y="350" type="curve"/>
      <point x="15" y="235"/>
      <point x="100" y="210"/>
    </contour>
  </outline>
</glyph>
<glyph name="u" format="1">
  <advance width="600"/>
  <unicode hex="0075"/>
  <outline>
    <contour>
      <point x="575" y="500" type="line"/>
      <point x="375" y="500" type="line"/>
      <point x="375" y="75" type="line"/>
      <point x="400" y="0" type="line"/>
      <point x="575" y="0" type="line"/>
    </contour>
    <contour>
      <point x="375" y="75" type="curve"/>
      <point x="375" y="255" type="line"/>
      <point x="375" y="215"/>
      <point x="355" y="190"/>
      <point x="300" y="190" type="curve" smooth="yes"/>
      <point x="245" y="190"/>
      <point x="225" y="215"/>
      <point x="225" y="255" type="curve"/>
      <point x="225" y="500" type="line"/>
      <point x="25" y="500" type="line"/>
      <point x="25" y="245" type="line"/>
      <point x="25" y="75"/>
      <point x="75" y="-10"/>
      <point x="225" y="-10" type="curve"/>
      <point x="305" y="-10"/>
      <point x="360" y="20"/>
    </contour>
    <contour>
      <point x="325.0" y="10.0" type="move" name="top"/>
    </contour>
  </outline>
</glyph>
<glyph name="onequarter" format="1">
  <advance width="600"/>
  <unicode hex="00BC"/>
  <outline>
    <contour>
      <point x="0" y="0" type="line"/>
      <point x="110" y="0" type="line"/>
      <point x="460" y="700" type="line"/>
      <point x="350" y="700" type="line"/>
    </contour>
    <contour>
      <point x="50" y="400" type="line"/>
      <point x="150" y="400" type="line"/>
      <point x="150" y="700" type="line"/>
      <point x="50" y="700" type="line"/>
    </contour>
    <contour>
      <point x="90" y="700" type="line"/>
      <point x="20" y="700" type="line"/>
      <point x="0" y="600" type="line"/>
      <point x="100" y="600" type="line"/>
    </contour>
    <contour>
      <point x="250" y="0" type="line"/>
      <point x="550" y="0" type="line"/>
      <point x="550" y="100" type="line"/>
      <point x="290" y="100" type="line"/>
      <point x="250" y="70" type="line"/>
    </contour>
    <contour>
      <point x="330" y="20" type="line"/>
      <point x="550" y="450" type="line" smooth="yes"/>
      <point x="440" y="450" type="line"/>
      <point x="250" y="70" type="line"/>
    </contour>
    <contour>
      <point x="550" y="-50" type="line"/>
      <point x="550" y="200" type="line"/>
      <point x="500" y="200" type="line"/>
      <point x="500" y="170"/>
      <point x="480" y="150"/>
      <point x="450" y="150" type="curve"/>
      <point x="450" y="-50" type="line"/>
    </contour>
  </outline>
</glyph>
<glyph name="AE" format="1">
  <advance width="950"/>
  <unicode hex="00C6"/>
  <outline>
    <contour>
      <point x="500" y="200" type="line"/>
      <point x="500" y="350" type="line"/>
      <point x="100" y="350" type="line"/>
      <point x="100" y="200" type="line"/>
    </contour>
    <contour>
      <point x="400" y="700" type="line"/>
      <point x="105" y="615"/>
      <point x="50" y="505"/>
      <point x="50" y="250" type="curve" smooth="yes"/>
      <point x="50" y="0" type="line"/>
      <point x="200" y="0" type="line"/>
      <point x="200" y="250" type="line" smooth="yes"/>
      <point x="200" y="480"/>
      <point x="235" y="510"/>
      <point x="465" y="565" type="curve"/>
    </contour>
    <contour>
      <point x="400" y="0" type="line"/>
      <point x="550" y="0" type="line"/>
      <point x="550" y="700" type="line"/>
      <point x="400" y="700" type="line"/>
    </contour>
    <contour>
      <point x="450" y="0" type="line"/>
      <point x="900" y="0" type="line"/>
      <point x="900" y="150" type="line"/>
      <point x="450" y="150" type="line"/>
    </contour>
    <contour>
      <point x="420" y="550" type="line"/>
      <point x="900" y="550" type="line"/>
      <point x="900" y="700" type="line"/>
      <point x="400" y="700" type="line"/>
    </contour>
    <contour>
      <point x="450" y="300" type="line"/>
      <point x="850" y="300" type="line"/>
      <point x="850" y="450" type="line"/>
      <point x="450" y="450" type="line"/>
    </contour>
    <contour>
      <point x="300.0" y="650.0" type="move" name="top"/>
    </contour>
    <contour>
      <point x="665.0" y="650.0" type="move" name="top"/>
    </contour>
  </outline>
</glyph>
<glyph name="OE" format="1">
  <advance width="950"/>
  <unicode hex="0152"/>
  <outline>
    <contour>
      <point x="400" y="0" type="line"/>
      <point x="550" y="0" type="line"/>
      <point x="550" y="700" type="line"/>
      <point x="400" y="700" type="line"/>
    </contour>
    <contour>
      <point x="270" y="0" type="curve" smooth="yes"/>
      <point x="455" y="0" type="line"/>
      <point x="475" y="150" type="line"/>
      <point x="300" y="150" type="line"/>
      <point x="220" y="150"/>
      <point x="200" y="170"/>
      <point x="200" y="240" type="curve" smooth="yes"/>
      <point x="200" y="350" type="line"/>
      <point x="50" y="350" type="line"/>
      <point x="50" y="245" type="line"/>
      <point x="50" y="70"/>
      <point x="130" y="0"/>
    </contour>
    <contour>
      <point x="270" y="700" type="line"/>
      <point x="130" y="700"/>
      <point x="50" y="630"/>
      <point x="50" y="455" type="curve"/>
      <point x="50" y="350" type="line"/>
      <point x="200" y="350" type="line"/>
      <point x="200" y="460" type="line" smooth="yes"/>
      <point x="200" y="530"/>
      <point x="220" y="550"/>
      <point x="300" y="550" type="curve"/>
      <point x="465" y="550" type="line"/>
      <point x="465" y="700" type="line"/>
    </contour>
    <contour>
      <point x="450" y="0" type="line"/>
      <point x="900" y="0" type="line"/>
      <point x="900" y="150" type="line"/>
      <point x="450" y="150" type="line"/>
    </contour>
    <contour>
      <point x="450" y="550" type="line"/>
      <point x="900" y="550" type="line"/>
      <point x="900" y="700" type="line"/>
      <point x="450" y="700" type="line"/>
    </contour>
    <contour>
      <point x="450" y="300" type="line"/>
      <point x="850" y="300" type="line"/>
      <point x="850" y="450" type="line"/>
      <point x="450" y="450" type="line"/>
    </contour>
    <contour>
      <point x="300" y="650" type="move" name="top"/>
    </contour>
    <contour>
      <point x="665" y="650" type="move" name="top"/>
    </contour>
  </outline>
</glyph>
<glyph name="emdash" format="1">
  <advance width="1000"/>
  <unicode hex="2014"/>
  <outline>
    <contour>
      <point x="950" y="175" type="line"/>
      <point x="950" y="325" type="line"/>
      <point x="50" y="325" type="line"/>
      <point x="50" y="175" type="line"/>
    </contour>
  </outline>
</glyph>
<glyph name="Square_with_Upper_Left_To_Lower_Right_Fill" format="1">
  <advance width="1000"/>
  <outline>
    <contour>
      <point x="150" y="-100" type="line"/>
      <point x="150" y="600" type="line"/>
      <point x="850" y="600" type="line"/>
      <point x="850" y="-100" type="line"/>
    </contour>
    <contour>
      <point x="50" y="-200" type="line"/>
      <point x="950" y="-200" type="line"/>
      <point x="950" y="700" type="line"/>
      <point x="50" y="700" type="line"/>
    </contour>
    <contour>
      <point x="75" y="605" type="line"/>
      <point x="855" y="-175" type="line"/>
      <point x="925" y="-105" type="line"/>
      <point x="145" y="675" type="line"/>
    </contour>
    <contour>
      <point x="310" y="650" type="line"/>
      <point x="900" y="60" type="line"/>
      <point x="900" y="200" type="line"/>
      <point x="450" y="650" type="line"/>
    </contour>
    <contour>
      <point x="590" y="650" type="line"/>
      <point x="905" y="335" type="line"/>
      <point x="905" y="475" type="line"/>
      <point x="715" y="665" type="line"/>
    </contour>
    <contour>
      <point x="690" y="-150" type="line"/>
      <point x="100" y="440" type="line"/>
      <point x="100" y="300" type="line"/>
      <point x="550" y="-150" type="line"/>
    </contour>
    <contour>
      <point x="410" y="-150" type="line"/>
      <point x="95" y="165" type="line"/>
      <point x="95" y="25" type="line"/>
      <point x="285" y="-165" type="line"/>
    </contour>
  </outline>
</glyph>
<glyph name="Square_with_Vertical_Fill" format="1">
  <advance width="951"/>
  <outline>
    <contour>
      <point x="200" y="-50" type="line"/>
      <point x="200" y="550" type="line"/>
      <point x="750" y="550" type="line"/>
      <point x="750" y="-50" type="line"/>
    </contour>
    <contour>
      <point x="50" y="-200" type="line"/>
      <point x="900" y="-200" type="line"/>
      <point x="900" y="700" type="line"/>
      <point x="50" y="700" type="line"/>
    </contour>
    <contour>
      <point x="550" y="-150" type="line"/>
      <point x="550" y="650" type="line"/>
      <point x="400" y="650" type="line"/>
      <point x="400" y="-150" type="line"/>
    </contour>
    <contour>
      <point x="300" y="500" type="move" name="top"/>
    </contour>
  </outline>
</glyph>
<glyph name="a.alt" format="1">
  <advance width="600"/>
  <outline>
    <contour>
      <point x="550.0" y="0.0" type="line"/>
      <point x="550.0" y="500.0" type="line"/>
      <point x="410" y="500" type="line"/>
      <point x="400" y="420" type="line"/>
      <point x="400.0" y="80.0" type="line"/>
      <point x="410" y="0" type="line"/>
    </contour>
    <contour>
      <point x="400" y="80" type="curve"/>
      <point x="400" y="240" type="line"/>
      <point x="400" y="170"/>
      <point x="380" y="140"/>
      <point x="300" y="140" type="curve" smooth="yes"/>
      <point x="240" y="140"/>
      <point x="200" y="170"/>
      <point x="200" y="240" type="curve"/>
      <point x="200" y="250" type="line"/>
      <point x="50" y="250" type="line"/>
      <point x="50" y="210" type="line"/>
      <point x="50" y="60"/>
      <point x="120" y="-10"/>
      <point x="240" y="-10" type="curve"/>
      <point x="335" y="-10"/>
      <point x="380" y="25"/>
    </contour>
    <contour>
      <point x="380" y="475"/>
      <point x="335" y="510"/>
      <point x="240" y="510" type="curve"/>
      <point x="120" y="510"/>
      <point x="50" y="440"/>
      <point x="50" y="290" type="curve"/>
      <point x="50" y="250" type="line"/>
      <point x="200" y="250" type="line"/>
      <point x="200" y="260" type="line"/>
      <point x="200" y="330"/>
      <point x="240" y="360"/>
      <point x="300" y="360" type="curve" smooth="yes"/>
      <point x="380" y="360"/>
      <point x="400" y="330"/>
      <point x="400" y="260" type="curve"/>
      <point x="400" y="420" type="line"/>
    </contour>
  </outline>
</glyph>
<glyph name="f_f" format="1">
  <advance width="750"/>
  <outline>
    <contour>
      <point x="30" y="175" type="line"/>
      <point x="320" y="175" type="line"/>
      <point x="320" y="325" type="line"/>
      <point x="30" y="325" type="line"/>
    </contour>
    <contour>
      <point x="375" y="175" type="line"/>
      <point x="725" y="175" type="line"/>
      <point x="725" y="325" type="line"/>
      <point x="375" y="325" type="line"/>
    </contour>
    <contour>
      <point x="750" y="700" type="line"/>
      <point x="550" y="700" type="line"/>
      <point x="460" y="700"/>
      <point x="400" y="640"/>
      <point x="400" y="550" type="curve"/>
      <point x="400" y="0" type="line"/>
      <point x="550" y="0" type="line"/>
      <point x="550" y="500" type="line" smooth="yes"/>
      <point x="550" y="540"/>
      <point x="570" y="550"/>
      <point x="600" y="550" type="curve"/>
      <point x="750" y="550" type="line"/>
    </contour>
    <contour>
      <point x="435" y="610" type="line"/>
      <point x="400" y="675"/>
      <point x="345" y="710"/>
      <point x="240" y="710" type="curve"/>
      <point x="110" y="710"/>
      <point x="50" y="650"/>
      <point x="50" y="490" type="curve"/>
      <point x="50" y="0" type="line"/>
      <point x="200" y="0" type="line"/>
      <point x="200" y="460" type="line"/>
      <point x="200" y="530"/>
      <point x="230" y="560"/>
      <point x="300" y="560" type="curve" smooth="yes"/>
      <point x="375" y="560"/>
      <point x="400" y="525"/>
      <point x="400" y="460" type="curve"/>
    </contour>
  </outline>
</glyph>
<glyph name="five.sup" format="1">
  <advance width="400"/>
  <outline>
    <contour>
      <point x="150" y="565" type="curve"/>
      <point x="140" y="570" type="line"/>
      <point x="140" y="610" type="line"/>
      <point x="350" y="610" type="line"/>
      <point x="350" y="700" type="line"/>
      <point x="50" y="700" type="line"/>
      <point x="50" y="520" type="line"/>
      <point x="140" y="520" type="line"/>
      <point x="150" y="535"/>
      <point x="170" y="540"/>
      <point x="200" y="540" type="curve" smooth="yes"/>
      <point x="240" y="540"/>
      <point x="260" y="535"/>
      <point x="260" y="510" type="curve" smooth="yes"/>
      <point x="260" y="485"/>
      <point x="240" y="480"/>
      <point x="200" y="480" type="curve" smooth="yes"/>
      <point x="160" y="480"/>
      <point x="140" y="480"/>
      <point x="140" y="500" type="curve"/>
      <point x="50" y="500" type="line"/>
      <point x="50" y="410"/>
      <point x="110" y="390"/>
      <point x="200" y="390" type="curve" smooth="yes"/>
      <point x="310" y="390"/>
      <point x="360" y="420"/>
      <point x="360" y="505" type="curve"/>
      <point x="360" y="565"/>
      <point x="320" y="590"/>
      <point x="250" y="590" type="curve"/>
      <point x="190" y="590"/>
      <point x="165" y="580"/>
    </contour>
  </outline>
</glyph>
<glyph name="i.alt" format="1">
  <advance width="300"/>
  <outline>
    <contour>
      <point x="100" y="0" type="line"/>
      <point x="250" y="0" type="line"/>
      <point x="250" y="500" type="line"/>
      <point x="100" y="500" type="line"/>
    </contour>
    <contour>
      <point x="100" y="550" type="line"/>
      <point x="250" y="550" type="line"/>
      <point x="250" y="700" type="line"/>
      <point x="100" y="700" type="line"/>
    </contour>
  </outline>
</glyph>
